<svg width="116" height="16" viewBox="0 0 116 16" fill="none" xmlns="http://www.w3.org/2000/svg">
<g id="Socials">
<path id="Path 13" fill-rule="evenodd" clip-rule="evenodd" d="M79.1911 7.97058H76.964V15.9412H73.6429V9.27463V7.97058H72.0801V5.15744H73.6429V3.32108C73.6429 2.03172 74.2681 0 76.964 0H79.4255V2.735H77.6673C77.3938 2.735 76.964 2.89129 76.964 3.51643V5.15744H79.4646L79.1911 7.97058Z" fill="#081420"/>
<g id="Group 888">
<path id="Path 8" fill-rule="evenodd" clip-rule="evenodd" d="M8.12998 0C9.19048 0.0378781 10.2889 0.0378781 11.3494 0.0757512C12.2962 0.113624 13.1674 0.265125 14.0006 0.757496C15.0611 1.40137 15.705 2.34824 15.9322 3.56023C16.0459 4.27985 16.0837 5.03735 16.1216 5.75698C16.1595 7.34771 16.1216 8.93846 16.1216 10.5292C16.1216 11.3624 16.0837 12.1957 15.8186 12.9911C15.2884 14.5439 14.19 15.4908 12.5992 15.7938C11.8796 15.9453 11.1221 15.9453 10.4025 15.9832C8.81173 16.021 7.25885 15.9832 5.6681 15.9832C4.83485 15.9832 4.0016 15.9453 3.20623 15.6802C1.65335 15.1499 0.706474 14.0515 0.403473 12.4608C0.251976 11.7412 0.251976 10.9837 0.2141 10.2641C0.176223 8.67333 0.2141 7.08259 0.2141 5.49185C0.2141 4.65861 0.251976 3.82536 0.5171 3.02998C1.04735 1.47711 2.14573 0.530251 3.73647 0.227251C4.4561 0.0757562 5.2136 0.0757562 5.93323 0.0378781C6.65285 0 7.37247 0 8.12998 0ZM14.6822 7.84071C14.6444 7.84071 14.6822 7.84071 14.6822 7.84071C14.6444 7.19684 14.6444 6.59084 14.6444 5.94696C14.6444 5.34097 14.6065 4.73497 14.5307 4.12898C14.3792 2.76548 13.5839 1.85648 12.2582 1.59136C11.5765 1.43987 10.819 1.43987 10.1372 1.43987C8.77373 1.40199 7.4481 1.40199 6.0846 1.43987C5.40285 1.43987 4.7211 1.47773 4.07722 1.59136C2.94097 1.78074 2.1456 2.42461 1.80473 3.56085C1.6911 3.9396 1.65323 4.31835 1.61535 4.69709C1.57747 6.13634 1.57747 7.57558 1.57747 9.01482C1.57747 9.92382 1.61535 10.8707 1.6911 11.7797C1.80473 13.1432 2.63797 14.09 4.00148 14.3173C4.68322 14.4309 5.40285 14.4688 6.12248 14.4688C7.4481 14.5067 8.77373 14.4688 10.1372 14.4688C10.7432 14.4688 11.3492 14.4309 11.9552 14.3552C12.5234 14.3173 13.0536 14.1279 13.5081 13.7492C14.2656 13.1432 14.5307 12.3478 14.5686 11.4388C14.6444 10.3026 14.6444 9.09057 14.6822 7.84071Z" fill="#081420"/>
<path id="Path 9" fill-rule="evenodd" clip-rule="evenodd" d="M12.2201 7.99134C12.2201 10.2638 10.4021 12.0818 8.12957 12.0818C5.85707 12.0818 4.03906 10.2638 4.03906 7.95347C4.03906 5.71886 5.89494 3.90088 8.16744 3.90088C10.4021 3.90088 12.2201 5.71886 12.2201 7.99134ZM8.12999 10.6434C9.56923 10.6434 10.7812 9.43144 10.7812 7.99221C10.7812 6.55297 9.56923 5.34098 8.12999 5.34098C6.65286 5.34098 5.47873 6.55297 5.47873 7.99221C5.44086 9.43144 6.65286 10.6434 8.12999 10.6434Z" fill="#081420"/>
<path id="Path 10" d="M13.3188 3.71104C13.3188 4.24129 12.9022 4.69579 12.3719 4.69579C11.8417 4.69579 11.3872 4.24129 11.4251 3.71104C11.4251 3.18079 11.8417 2.76416 12.3719 2.76416C12.9022 2.76416 13.3188 3.18078 13.3188 3.71104Z" fill="#081420"/>
</g>
<path id="Path 7" fill-rule="evenodd" clip-rule="evenodd" d="M52.0799 9.32412V15.2107H48.6425V9.71083C48.6425 8.33586 48.1698 7.39057 46.9237 7.39057C45.9785 7.39057 45.4199 8.03509 45.1621 8.63664C45.0761 8.85147 45.0332 9.15225 45.0332 9.45302V15.2107H41.5957C41.5957 15.2107 41.6387 5.88669 41.5957 4.9414H45.0332V6.40231C45.0332 6.40231 45.0332 6.44527 44.9902 6.44527H45.0332V6.40231C45.5058 5.71482 46.2792 4.68359 48.1269 4.68359C50.3612 4.68359 52.0799 6.18747 52.0799 9.32412ZM38.0722 0C36.9121 0 36.1387 0.773422 36.1387 1.76168C36.1387 2.74994 36.8691 3.52337 38.0293 3.52337H38.0722C39.2753 3.52337 40.0058 2.74995 40.0058 1.76168C39.9628 0.773422 39.2324 0 38.0722 0ZM36.3105 15.2107H39.705V4.94141H36.3105V15.2107Z" fill="#081420"/>
<path id="Path 6" fill-rule="evenodd" clip-rule="evenodd" d="M115.406 2.85816C114.806 3.12072 114.206 3.30826 113.531 3.38328C114.206 2.97068 114.731 2.33304 114.956 1.58287C114.318 1.95796 113.606 2.22051 112.893 2.37055C112.293 1.7329 111.43 1.32031 110.492 1.32031C108.692 1.32031 107.229 2.78314 107.229 4.58354C107.229 4.84611 107.267 5.10866 107.304 5.33372C104.566 5.18368 102.165 3.90839 100.553 1.92045C100.253 2.40806 100.102 2.97068 100.102 3.57082C100.102 4.69607 100.665 5.7088 101.565 6.30893C101.04 6.30893 100.515 6.1589 100.065 5.89634V5.93384C100.065 7.5092 101.19 8.8595 102.691 9.15956C102.428 9.23458 102.128 9.27209 101.828 9.27209C101.603 9.27209 101.415 9.23458 101.228 9.19708C101.64 10.5099 102.841 11.4476 104.303 11.4851C103.178 12.3478 101.79 12.8729 100.253 12.8729C99.99 12.8729 99.7274 12.8729 99.4648 12.8354C100.928 13.7731 102.616 14.2982 104.491 14.2982C110.53 14.2982 113.793 9.3096 113.793 4.99614C113.793 4.84611 113.793 4.69607 113.793 4.58354C114.431 4.09594 114.993 3.4958 115.406 2.85816Z" fill="#6C5FBC"/>
</g>
</svg>
